<mxfile host="www.draw.io" modified="2024-06-17T12:53:20.042Z" agent="Mozilla/5.0 (Windows NT 10.0; Win64; x64) AppleWebKit/537.36 (KHTML, like Gecko) Chrome/126.0.0.0 Safari/537.36 Edg/126.0.0.0" etag="UVefoxOuJNBaiySefWDQ" version="24.5.4" type="device">
  <diagram id="C5RBs43oDa-KdzZeNtuy" name="Page-1">
    <mxGraphModel dx="1379" dy="785" grid="0" gridSize="10" guides="1" tooltips="1" connect="1" arrows="1" fold="1" page="1" pageScale="1" pageWidth="1169" pageHeight="827" math="0" shadow="0">
      <root>
        <mxCell id="WIyWlLk6GJQsqaUBKTNV-0" />
        <mxCell id="WIyWlLk6GJQsqaUBKTNV-1" parent="WIyWlLk6GJQsqaUBKTNV-0" />
        <mxCell id="1rokdhrj3rAyIRbk-CUw-6" value="" style="edgeStyle=orthogonalEdgeStyle;rounded=0;orthogonalLoop=1;jettySize=auto;html=1;" edge="1" parent="WIyWlLk6GJQsqaUBKTNV-1" source="WIyWlLk6GJQsqaUBKTNV-3" target="1rokdhrj3rAyIRbk-CUw-1">
          <mxGeometry relative="1" as="geometry" />
        </mxCell>
        <mxCell id="WIyWlLk6GJQsqaUBKTNV-3" value="&lt;font style=&quot;font-size: 18px;&quot;&gt;start&lt;/font&gt;" style="rounded=1;whiteSpace=wrap;html=1;fontSize=12;glass=0;strokeWidth=1;shadow=0;" parent="WIyWlLk6GJQsqaUBKTNV-1" vertex="1">
          <mxGeometry x="173" y="36" width="120" height="40" as="geometry" />
        </mxCell>
        <mxCell id="1rokdhrj3rAyIRbk-CUw-7" value="" style="edgeStyle=orthogonalEdgeStyle;rounded=0;orthogonalLoop=1;jettySize=auto;html=1;" edge="1" parent="WIyWlLk6GJQsqaUBKTNV-1" source="1rokdhrj3rAyIRbk-CUw-1" target="1rokdhrj3rAyIRbk-CUw-2">
          <mxGeometry relative="1" as="geometry" />
        </mxCell>
        <mxCell id="1rokdhrj3rAyIRbk-CUw-1" value="&lt;font style=&quot;font-size: 18px;&quot;&gt;New&lt;/font&gt;" style="rounded=0;whiteSpace=wrap;html=1;comic=1;fillColor=#f5f5f5;strokeColor=#666666;fontColor=#333333;" vertex="1" parent="WIyWlLk6GJQsqaUBKTNV-1">
          <mxGeometry x="173" y="116.5" width="120" height="51" as="geometry" />
        </mxCell>
        <mxCell id="1rokdhrj3rAyIRbk-CUw-5" value="" style="edgeStyle=orthogonalEdgeStyle;rounded=0;orthogonalLoop=1;jettySize=auto;html=1;" edge="1" parent="WIyWlLk6GJQsqaUBKTNV-1" source="1rokdhrj3rAyIRbk-CUw-2" target="1rokdhrj3rAyIRbk-CUw-4">
          <mxGeometry relative="1" as="geometry" />
        </mxCell>
        <mxCell id="1rokdhrj3rAyIRbk-CUw-2" value="&lt;font style=&quot;font-size: 18px;&quot;&gt;Open&lt;/font&gt;" style="rounded=0;whiteSpace=wrap;html=1;comic=1;fillColor=#fff2cc;strokeColor=#d6b656;" vertex="1" parent="WIyWlLk6GJQsqaUBKTNV-1">
          <mxGeometry x="173" y="214" width="120" height="51" as="geometry" />
        </mxCell>
        <mxCell id="1rokdhrj3rAyIRbk-CUw-9" value="" style="edgeStyle=orthogonalEdgeStyle;rounded=0;orthogonalLoop=1;jettySize=auto;html=1;" edge="1" parent="WIyWlLk6GJQsqaUBKTNV-1" source="1rokdhrj3rAyIRbk-CUw-4" target="1rokdhrj3rAyIRbk-CUw-8">
          <mxGeometry relative="1" as="geometry" />
        </mxCell>
        <mxCell id="1rokdhrj3rAyIRbk-CUw-22" value="" style="edgeStyle=orthogonalEdgeStyle;rounded=0;orthogonalLoop=1;jettySize=auto;html=1;" edge="1" parent="WIyWlLk6GJQsqaUBKTNV-1" source="1rokdhrj3rAyIRbk-CUw-4" target="1rokdhrj3rAyIRbk-CUw-21">
          <mxGeometry relative="1" as="geometry" />
        </mxCell>
        <mxCell id="1rokdhrj3rAyIRbk-CUw-4" value="&lt;font style=&quot;font-size: 15px;&quot;&gt;bug是否修改？&lt;/font&gt;" style="rhombus;whiteSpace=wrap;html=1;rounded=0;comic=1;fillColor=#f8cecc;strokeColor=#b85450;" vertex="1" parent="WIyWlLk6GJQsqaUBKTNV-1">
          <mxGeometry x="149.88" y="312" width="166.25" height="99" as="geometry" />
        </mxCell>
        <mxCell id="1rokdhrj3rAyIRbk-CUw-11" value="" style="edgeStyle=orthogonalEdgeStyle;rounded=0;orthogonalLoop=1;jettySize=auto;html=1;comic=1;" edge="1" parent="WIyWlLk6GJQsqaUBKTNV-1" source="1rokdhrj3rAyIRbk-CUw-8" target="1rokdhrj3rAyIRbk-CUw-10">
          <mxGeometry relative="1" as="geometry" />
        </mxCell>
        <mxCell id="1rokdhrj3rAyIRbk-CUw-8" value="&lt;font style=&quot;font-size: 18px;&quot;&gt;Fixed&lt;/font&gt;" style="whiteSpace=wrap;html=1;rounded=0;comic=1;fillColor=#ffe6cc;strokeColor=#d79b00;" vertex="1" parent="WIyWlLk6GJQsqaUBKTNV-1">
          <mxGeometry x="383.055" y="331" width="120" height="60" as="geometry" />
        </mxCell>
        <mxCell id="1rokdhrj3rAyIRbk-CUw-14" value="" style="edgeStyle=orthogonalEdgeStyle;rounded=0;orthogonalLoop=1;jettySize=auto;html=1;comic=1;" edge="1" parent="WIyWlLk6GJQsqaUBKTNV-1" source="1rokdhrj3rAyIRbk-CUw-10" target="1rokdhrj3rAyIRbk-CUw-13">
          <mxGeometry relative="1" as="geometry" />
        </mxCell>
        <mxCell id="1rokdhrj3rAyIRbk-CUw-18" value="" style="edgeStyle=orthogonalEdgeStyle;rounded=0;orthogonalLoop=1;jettySize=auto;html=1;comic=1;" edge="1" parent="WIyWlLk6GJQsqaUBKTNV-1" source="1rokdhrj3rAyIRbk-CUw-10" target="1rokdhrj3rAyIRbk-CUw-17">
          <mxGeometry relative="1" as="geometry" />
        </mxCell>
        <mxCell id="1rokdhrj3rAyIRbk-CUw-10" value="&lt;font style=&quot;font-size: 15px;&quot;&gt;修复成功？&lt;/font&gt;" style="rhombus;whiteSpace=wrap;html=1;rounded=0;comic=1;fillColor=#f8cecc;strokeColor=#b85450;" vertex="1" parent="WIyWlLk6GJQsqaUBKTNV-1">
          <mxGeometry x="372" y="460" width="142.12" height="86" as="geometry" />
        </mxCell>
        <mxCell id="1rokdhrj3rAyIRbk-CUw-15" style="edgeStyle=orthogonalEdgeStyle;rounded=0;orthogonalLoop=1;jettySize=auto;html=1;exitX=1;exitY=0.5;exitDx=0;exitDy=0;entryX=1;entryY=0.5;entryDx=0;entryDy=0;comic=1;" edge="1" parent="WIyWlLk6GJQsqaUBKTNV-1" source="1rokdhrj3rAyIRbk-CUw-13" target="1rokdhrj3rAyIRbk-CUw-8">
          <mxGeometry relative="1" as="geometry" />
        </mxCell>
        <mxCell id="1rokdhrj3rAyIRbk-CUw-13" value="&lt;font style=&quot;font-size: 18px;&quot;&gt;Reopen&lt;/font&gt;" style="whiteSpace=wrap;html=1;rounded=0;comic=1;fillColor=#dae8fc;strokeColor=#6c8ebf;" vertex="1" parent="WIyWlLk6GJQsqaUBKTNV-1">
          <mxGeometry x="592.0000000000001" y="473" width="120" height="60" as="geometry" />
        </mxCell>
        <mxCell id="1rokdhrj3rAyIRbk-CUw-16" value="&lt;font style=&quot;font-size: 18px;&quot;&gt;no&lt;/font&gt;" style="text;html=1;align=center;verticalAlign=middle;resizable=0;points=[];autosize=1;strokeColor=none;fillColor=none;comic=1;" vertex="1" parent="WIyWlLk6GJQsqaUBKTNV-1">
          <mxGeometry x="532" y="465" width="38" height="34" as="geometry" />
        </mxCell>
        <mxCell id="1rokdhrj3rAyIRbk-CUw-25" value="" style="edgeStyle=orthogonalEdgeStyle;rounded=0;orthogonalLoop=1;jettySize=auto;html=1;comic=1;" edge="1" parent="WIyWlLk6GJQsqaUBKTNV-1" source="1rokdhrj3rAyIRbk-CUw-17" target="1rokdhrj3rAyIRbk-CUw-24">
          <mxGeometry relative="1" as="geometry" />
        </mxCell>
        <mxCell id="1rokdhrj3rAyIRbk-CUw-17" value="&lt;font style=&quot;font-size: 18px;&quot;&gt;Closed&lt;/font&gt;" style="whiteSpace=wrap;html=1;rounded=0;comic=1;fillColor=#d5e8d4;strokeColor=#82b366;" vertex="1" parent="WIyWlLk6GJQsqaUBKTNV-1">
          <mxGeometry x="383.06" y="615" width="120" height="60" as="geometry" />
        </mxCell>
        <mxCell id="1rokdhrj3rAyIRbk-CUw-19" value="&lt;font style=&quot;font-size: 18px;&quot;&gt;yes&lt;/font&gt;" style="text;html=1;align=center;verticalAlign=middle;resizable=0;points=[];autosize=1;strokeColor=none;fillColor=none;comic=1;" vertex="1" parent="WIyWlLk6GJQsqaUBKTNV-1">
          <mxGeometry x="445" y="548" width="46" height="34" as="geometry" />
        </mxCell>
        <mxCell id="1rokdhrj3rAyIRbk-CUw-20" value="&lt;font style=&quot;font-size: 18px;&quot;&gt;yes&lt;/font&gt;" style="text;html=1;align=center;verticalAlign=middle;resizable=0;points=[];autosize=1;strokeColor=none;fillColor=none;" vertex="1" parent="WIyWlLk6GJQsqaUBKTNV-1">
          <mxGeometry x="323" y="312" width="46" height="34" as="geometry" />
        </mxCell>
        <mxCell id="1rokdhrj3rAyIRbk-CUw-21" value="&lt;font style=&quot;font-size: 18px;&quot;&gt;Reject 或者Delay&lt;/font&gt;" style="whiteSpace=wrap;html=1;rounded=0;comic=1;fillColor=#e1d5e7;strokeColor=#9673a6;" vertex="1" parent="WIyWlLk6GJQsqaUBKTNV-1">
          <mxGeometry x="152.5" y="479.5" width="161" height="47" as="geometry" />
        </mxCell>
        <mxCell id="1rokdhrj3rAyIRbk-CUw-23" value="&lt;font style=&quot;font-size: 18px;&quot;&gt;no&lt;/font&gt;" style="text;html=1;align=center;verticalAlign=middle;resizable=0;points=[];autosize=1;strokeColor=none;fillColor=none;" vertex="1" parent="WIyWlLk6GJQsqaUBKTNV-1">
          <mxGeometry x="235" y="420" width="38" height="34" as="geometry" />
        </mxCell>
        <mxCell id="1rokdhrj3rAyIRbk-CUw-24" value="&lt;font style=&quot;font-size: 18px;&quot;&gt;end&lt;/font&gt;" style="rounded=1;whiteSpace=wrap;html=1;comic=1;" vertex="1" parent="WIyWlLk6GJQsqaUBKTNV-1">
          <mxGeometry x="383.06" y="730" width="120" height="60" as="geometry" />
        </mxCell>
      </root>
    </mxGraphModel>
  </diagram>
</mxfile>
